<svg width="213" height="40" viewBox="0 0 213 40" fill="none" xmlns="http://www.w3.org/2000/svg">
<path fill-rule="evenodd" clip-rule="evenodd" d="M12.0111 20.1138V15.7771L0.0228271 20.233H0.00012207V24.6831H0.0228271L12.0111 29.139V24.7967L5.86369 22.4467L12.0111 20.1081V20.1138Z" fill="white"/>
<path fill-rule="evenodd" clip-rule="evenodd" d="M81.4487 28.9232V24.5865L87.5904 22.2536L81.4487 19.9206V15.584L93.4199 20.0398H93.4483V24.4957H93.4199L81.4487 28.9288V28.9232ZM76.306 9.44794L69.2675 32.0451H73.4452L80.4837 9.44794H76.306Z" fill="white"/>
<path fill-rule="evenodd" clip-rule="evenodd" d="M29.6247 15.1809C30.8167 16.4865 31.4411 18.2121 31.3673 19.9774V29.6043H27.1895V20.8629C27.2406 19.8866 26.9284 18.9329 26.3154 18.1723C25.7364 17.4969 24.8793 17.1222 23.9881 17.162C21.3714 17.162 20.0602 18.9784 20.0602 22.6055V29.6043H15.8824V13.8016H20.0602V15.2263C21.3884 13.9378 23.1878 13.251 25.0382 13.3305C26.7638 13.2567 28.4326 13.9322 29.6247 15.1809Z" fill="white"/>
<path fill-rule="evenodd" clip-rule="evenodd" d="M36.6917 7.0072V29.6044H40.8694V7.0072H36.6917Z" fill="white"/>
<path fill-rule="evenodd" clip-rule="evenodd" d="M64.4935 29.6043H61.0083L57.5912 20.2953L54.14 29.6043H50.6548L44.7969 13.7733H49.2641L52.5564 23.2412L55.9508 13.7733H59.2146L62.609 23.2696L65.9012 13.7733H70.3684L64.5049 29.6043H64.4935Z" fill="white"/>
<path d="M116.135 39.9958C111.855 39.9958 107.357 39.1846 103.833 37.2311V2.76468C107.302 0.866396 111.799 6.34551e-05 116.135 6.34551e-05C120.471 6.34551e-05 124.862 0.811189 128.328 2.76468V15.989H119.601V6.99018C118.573 6.55701 117.324 6.39564 116.08 6.39564C114.836 6.39564 113.693 6.55701 112.611 6.99018V33.0056C113.638 33.4388 114.832 33.6002 116.08 33.6002C117.329 33.6002 118.518 33.4388 119.601 33.0056V24.0111H128.328V37.2354C124.913 39.1337 120.416 39.9448 116.135 40V39.9958Z" fill="white"/>
<path d="M144.695 39.9957C140.087 39.9957 135.645 39.0189 132.12 37.0145V2.926C135.59 0.976747 140.036 0 144.695 0C149.353 0 153.689 0.92154 157.159 2.926V37.0145C153.745 39.0189 149.247 39.9405 144.695 39.9957ZM148.436 7.10053C147.408 6.66736 146.16 6.45078 144.644 6.45078C143.128 6.45078 141.934 6.66736 140.902 7.10053V32.8442C141.93 33.3326 143.179 33.5492 144.644 33.5492C146.109 33.5492 147.353 33.3326 148.436 32.8442V7.10053Z" fill="white"/>
<path d="M172.387 25.3615H170.056V39.5073H161.223V0.488399H172.387C177.7 0.488399 181.709 1.57131 184.852 3.79235V22.0575C181.764 24.2276 177.696 25.3615 172.387 25.3615ZM176.074 7.20672C175.263 6.61218 174.175 6.34039 172.332 6.34039H169.946V19.5095H172.332C174.12 19.5095 175.203 19.2377 176.074 18.6984V7.20672Z" fill="white"/>
<path d="M203.329 39.5073V25.3615H196.827V39.5073H188.049V2.87079C191.247 0.972501 195.744 0 200.08 0C204.416 0 208.858 0.976748 212.056 2.87079V39.5073H203.329ZM203.329 6.77353C202.408 6.34037 201.269 6.12378 200.076 6.12378C198.883 6.12378 197.745 6.34037 196.823 6.77353V19.1825H203.325V6.77353H203.329Z" fill="white"/>
</svg>
